<svg width="1920" height="300" viewBox="0 0 1920 300" fill="none" xmlns="http://www.w3.org/2000/svg">
<path d="M1920 0H6.10352e-05V300H1920V0Z" fill="#3B3054"/>
<path fill-rule="evenodd" clip-rule="evenodd" d="M1106.67 -76.1784C1106.67 23.2212 1139.15 94.4136 1259.64 140.4C1380.13 186.385 1496.56 144.422 1613.35 168.48C1730.13 192.538 1730.13 347.514 1840.12 442.885C1950.09 538.256 2181.99 561.422 2370.55 464.665C2559.09 367.907 2644.57 141.99 2588.23 8.78274C2531.89 -124.424 2423.92 -246 1902.99 -246C1382.04 -246 1106.67 -175.577 1106.67 -76.1784ZM-351.135 685.091C-311.555 777.888 -252.883 833.876 -122.081 837.943C8.72142 842.011 100.699 765.287 219.309 750.079C337.92 734.87 399.629 879.553 540.283 933.118C680.934 986.683 906.65 933.517 1044.15 782.371C1181.65 631.225 1171.49 392.748 1065.86 286.558C960.216 180.368 811.009 101.692 324.667 269.712C-161.676 437.732 -390.716 592.293 -351.136 685.091H-351.135ZM-685.333 -452.978C-685.333 -353.579 -652.853 -282.386 -532.357 -236.4C-411.863 -190.415 -295.443 -232.378 -178.655 -208.32C-61.8679 -184.262 -61.8679 -29.286 48.1148 66.0852C158.096 161.456 389.988 184.622 578.541 87.8652C767.095 -8.89322 852.568 -234.81 796.231 -368.017C739.892 -501.224 631.924 -622.8 110.981 -622.8C-409.961 -622.8 -685.333 -552.377 -685.333 -452.978Z" fill="#4B3F6B"/>
</svg>
