<svg width="1110" height="168" viewBox="0 0 1110 168" fill="none" xmlns="http://www.w3.org/2000/svg">
<g clip-path="url(#clip0_5_2)">
<path d="M1110 0H0V168H1110V0Z" fill="#3B3054"/>
<path fill-rule="evenodd" clip-rule="evenodd" d="M647 -93.924C647 -41.2 662.5 -3.438 720 20.953C777.5 45.344 833.055 23.087 888.786 35.847C944.517 48.607 944.517 130.809 997 181.396C1049.48 231.983 1160.14 244.27 1250.12 192.948C1340.1 141.626 1380.89 21.796 1354 -48.859C1327.11 -119.515 1275.59 -184 1027 -184C778.407 -184 647 -146.647 647 -93.924ZM-134 119.076C-134 171.8 -118.5 209.562 -61 233.953C-3.5 258.344 52.055 236.087 107.786 248.847C163.517 261.607 163.517 343.809 216 394.396C268.483 444.983 379.142 457.27 469.12 405.948C559.095 354.626 599.884 234.796 573 164.141C546.115 93.485 494.593 29 246 29C-2.593 29 -134 66.353 -134 119.076Z" fill="#4B3F6B"/>
</g>
<defs>
<clipPath id="clip0_5_2">
<rect width="1110" height="168" fill="white"/>
</clipPath>
</defs>
</svg>
