<svg width="75" height="75" viewBox="0 0 75 75" fill="none" xmlns="http://www.w3.org/2000/svg">
<rect width="75" height="75" fill="white"/>
<rect width="75" height="75" fill="#3B3054"/>
<path d="M51.8552 30.2541C52.4222 30.2541 52.8807 30.7126 52.8807 31.2796V52.949H53.9745C54.1092 52.949 54.2425 52.9755 54.3669 53.0271C54.4914 53.0786 54.6044 53.1541 54.6996 53.2494C54.7949 53.3446 54.8704 53.4576 54.9219 53.5821C54.9735 53.7065 55 53.8398 55 53.9745C55 54.1092 54.9735 54.2425 54.9219 54.3669C54.8704 54.4914 54.7949 54.6044 54.6996 54.6996C54.6044 54.7949 54.4914 54.8704 54.3669 54.9219C54.2425 54.9735 54.1092 55 53.9745 55H21.0255C20.8908 55 20.7575 54.9735 20.6331 54.9219C20.5086 54.8704 20.3956 54.7949 20.3004 54.6996C20.2051 54.6044 20.1296 54.4914 20.0781 54.3669C20.0265 54.2425 20 54.1092 20 53.9745C20 53.8398 20.0265 53.7065 20.0781 53.5821C20.1296 53.4576 20.2051 53.3446 20.3004 53.2494C20.3956 53.1541 20.5086 53.0786 20.6331 53.0271C20.7575 52.9755 20.8908 52.949 21.0255 52.949H22.1192V41.5338C22.1192 40.9676 22.5778 40.5082 23.1448 40.5082H27.245C27.812 40.5082 28.2705 40.9676 28.2705 41.5338V52.9499H30.3215V45.6349C30.3215 45.0696 30.78 44.6102 31.347 44.6102H35.4481C36.0151 44.6102 36.4736 45.0696 36.4736 45.6358V52.9508H38.5246V37.4309C38.5246 36.8647 38.9831 36.4054 39.5501 36.4054H43.6513C44.2183 36.4054 44.6767 36.8647 44.6767 37.4309V52.9481H46.7277V31.2796C46.7277 30.7126 47.1863 30.2541 47.7533 30.2541H51.8552ZM50.8298 32.3051H48.7796V52.949H50.8298V32.3051V32.3051ZM42.6266 38.4564H40.5765V52.949H42.6266V38.4572V38.4564ZM34.4235 46.6604H32.3734V52.949H34.4235V46.6612V46.6604ZM26.2213 42.5575H24.1702V52.9481H26.2204V42.5584L26.2213 42.5575ZM49.8043 20C50.6199 20.0009 51.4019 20.3254 51.9786 20.9021C52.5554 21.4789 52.8798 22.2608 52.8807 23.0765C52.8796 23.892 52.5551 24.6738 51.9783 25.2503C51.4016 25.8269 50.6198 26.1512 49.8043 26.1521C49.1743 26.1521 48.5889 25.9622 48.1006 25.6359L44.5367 28.309C44.6803 28.7696 44.7135 29.2575 44.6339 29.7334C44.5543 30.2093 44.364 30.6598 44.0784 31.0486C43.7927 31.4374 43.4197 31.7537 42.9894 31.972C42.5591 32.1902 42.0836 32.3043 41.6011 32.3051C41.1426 32.3054 40.6898 32.2025 40.2764 32.0041L36.1735 36.1061C36.366 36.5077 36.4745 36.9575 36.4745 37.4318C36.4733 38.2471 36.1489 39.0287 35.5724 39.6053C34.9959 40.1818 34.2142 40.5062 33.3989 40.5074C32.9631 40.5067 32.5325 40.4135 32.1355 40.234C31.7384 40.0546 31.3839 39.7929 31.0955 39.4664C30.807 39.1398 30.5911 38.7557 30.4621 38.3395C30.333 37.9233 30.2938 37.4845 30.3469 37.052L27.3281 35.5435C26.7561 36.0972 25.991 36.4066 25.1949 36.4062C24.3794 36.4051 23.5976 36.0806 23.021 35.5038C22.4445 34.9271 22.1202 34.1453 22.1192 33.3298C22.1204 32.5144 22.4448 31.7328 23.0214 31.1562C23.5979 30.5797 24.3795 30.2553 25.1949 30.2541C25.6306 30.2548 26.0612 30.348 26.4583 30.5275C26.8554 30.7069 27.2098 30.9686 27.4983 31.2951C27.7868 31.6217 28.0026 32.0058 28.1317 32.422C28.2607 32.8382 28.3 33.277 28.2469 33.7095L31.2656 35.2189C31.7155 34.783 32.2881 34.4954 32.9063 34.3948C33.5246 34.2942 34.1588 34.3855 34.7236 34.6562L38.8265 30.5543C38.628 30.1405 38.5251 29.6875 38.5255 29.2286C38.5264 28.4131 38.8507 27.6313 39.4273 27.0545C40.0039 26.4778 40.7856 26.1533 41.6011 26.1521C42.2311 26.1521 42.8174 26.3429 43.3056 26.6684L46.8695 23.9961C46.726 23.5355 46.6927 23.0476 46.7723 22.5717C46.8519 22.0959 47.0422 21.6454 47.3279 21.2565C47.6135 20.8677 47.9865 20.5514 48.4168 20.3331C48.8471 20.1149 49.3226 20.0008 49.8051 20H49.8043ZM33.398 36.4062C32.8328 36.4062 32.3734 36.8665 32.3734 37.4318C32.3734 37.997 32.8328 38.4572 33.398 38.4572C33.9641 38.4572 34.4235 37.997 34.4235 37.4318C34.4235 36.8665 33.9641 36.4062 33.398 36.4062ZM25.1958 32.3043C24.6296 32.3043 24.1702 32.7645 24.1702 33.3298C24.1702 33.895 24.6296 34.3553 25.1949 34.3553C25.761 34.3553 26.2204 33.895 26.2204 33.3298C26.2204 32.7645 25.761 32.3051 25.1958 32.3051V32.3043ZM41.602 28.2031C41.0359 28.2031 40.5765 28.6634 40.5765 29.2286C40.5765 29.7939 41.0359 30.2541 41.602 30.2541C42.1672 30.2541 42.6266 29.7939 42.6266 29.2286C42.6266 28.6634 42.1673 28.2031 41.6011 28.2031H41.602ZM49.8051 22.051C49.239 22.051 48.7796 22.5113 48.7796 23.0765C48.7796 23.6418 49.239 24.1011 49.8051 24.1011C50.3704 24.1011 50.8298 23.6418 50.8298 23.0765C50.8298 22.5113 50.3704 22.051 49.8043 22.051H49.8051Z" fill="#2BD0D0"/>
</svg>
