<svg width="75" height="75" viewBox="0 0 75 75" fill="none" xmlns="http://www.w3.org/2000/svg">
<rect width="75" height="75" fill="white"/>
<rect width="75" height="75" fill="#3B3054"/>
<path d="M37.4996 20C47.1485 20 55 27.8506 55 37.4996C55 47.1485 47.1494 55 37.4996 55C27.8506 55 20 47.1494 20 37.4996C20 27.8506 27.8506 20 37.4996 20ZM44.3397 51.1807C40.0779 49.0757 34.9221 49.0757 30.6603 51.1807C32.7811 52.2519 35.1236 52.8108 37.4996 52.8126C39.8758 52.8109 42.2186 52.252 44.3397 51.1807V51.1807ZM38.5942 22.2427V25.4686H36.4058V22.2435C33.3753 22.4571 30.4781 23.573 28.0872 25.4476L30.5393 27.8988L28.9925 29.4456L26.4616 26.9146C24.2503 29.2161 22.8165 32.1531 22.3618 35.3121H26.5623V37.5004H22.1874C22.1874 42.5878 24.6913 47.0907 28.521 49.8767C33.9695 46.6218 41.0305 46.6218 46.4781 49.8767C50.3079 47.0907 52.8126 42.5878 52.8126 37.4996H48.4377V35.3121H52.6382C52.1835 32.1531 50.7497 29.2161 48.5384 26.9146L46.0075 29.4456L44.4606 27.8988L46.9128 25.4476C44.5221 23.5727 41.6248 22.4565 38.5942 22.2427V22.2427ZM36.4584 29.5096C36.7494 28.6034 38.2506 28.6034 38.5416 29.5096C39.0981 31.2431 41.8753 39.9867 41.8753 41.8753C41.8742 43.0354 41.4127 44.1476 40.5924 44.9679C39.772 45.7881 38.6597 46.2493 37.4996 46.2502C36.3396 46.2491 35.2275 45.7878 34.4073 44.9676C33.5871 44.1474 33.1258 43.0353 33.1247 41.8753C33.1247 39.9867 35.9028 31.2431 36.4584 29.5096V29.5096ZM37.4996 33.512C36.419 37.0587 35.3121 40.9805 35.3121 41.8753C35.313 42.4552 35.5438 43.011 35.9538 43.4211C36.3639 43.8311 36.9197 44.0618 37.4996 44.0628C38.0796 44.0621 38.6356 43.8314 39.0459 43.4214C39.4561 43.0113 39.687 42.4553 39.6879 41.8753C39.6879 40.9814 38.581 37.0587 37.4996 33.512V33.512Z" fill="#2BD0D0"/>
</svg>
