<svg width="75" height="75" viewBox="0 0 75 75" fill="none" xmlns="http://www.w3.org/2000/svg">
<rect width="75" height="75" fill="white"/>
<rect width="75" height="75" fill="#3B3054"/>
<path d="M54.3667 24.3896C54.2646 24.3282 54.1487 24.2929 54.0293 24.2869C53.91 24.2809 53.791 24.3045 53.6832 24.3554L48.0616 26.9738C47.0878 27.4273 46.2525 28.1272 45.6402 29.0027C45.028 29.8781 44.6606 30.8981 44.5753 31.9591L44.4308 33.7354L41.5182 38.5194V36.477C41.5182 36.4697 41.5138 36.4646 41.5138 36.4573C41.5129 36.387 41.5015 36.3172 41.4799 36.2502L40.1246 32.2296L42.8919 26.758C42.9515 26.6384 42.9762 26.5049 42.9633 26.3722C42.9504 26.2395 42.9004 26.1131 42.8189 26.0069L38.4685 20.2706C38.398 20.186 38.3095 20.1178 38.2092 20.071C38.1089 20.0243 37.9994 20 37.8886 20C37.7777 20 37.6682 20.0243 37.5679 20.071C37.4677 20.1178 37.3791 20.186 37.3086 20.2706L32.9575 26.0084C32.8767 26.1149 32.8275 26.2416 32.8154 26.3743C32.8032 26.5069 32.8287 26.6403 32.8889 26.7594L35.6562 32.2304L34.3009 36.251C34.2791 36.3179 34.2674 36.3877 34.2663 36.4581V39.339L29.7485 32.5585C29.7433 32.5512 29.7337 32.5461 29.7293 32.5395C29.6858 32.4798 29.6333 32.4269 29.5737 32.3828C29.559 32.3733 29.5472 32.3609 29.5324 32.3521C29.5177 32.3427 29.5162 32.3375 29.5066 32.3324L26.8484 30.8121L25.7446 29.1562L24.1497 26.7594C24.0607 26.626 23.9291 26.5257 23.7758 26.4747C23.6226 26.4237 23.4565 26.4249 23.3039 26.478L20.4821 27.4572C20.3784 27.4937 20.2845 27.5529 20.2075 27.6306C20.1305 27.7082 20.0723 27.8021 20.0374 27.9053C20.0025 28.0084 19.9919 28.118 20.0062 28.2259C20.0205 28.3337 20.0594 28.4369 20.12 28.5277L22.1146 31.5223L23.2147 33.1775L23.5775 36.1941C23.5794 36.204 23.5819 36.2137 23.5849 36.2233C23.5878 36.2379 23.5915 36.2532 23.5959 36.2677C23.6124 36.3436 23.6413 36.4163 23.6815 36.4828C23.6866 36.4901 23.6866 36.4996 23.6918 36.5069C23.697 36.5142 34.475 52.6689 34.5273 52.7126C34.7864 53.3855 35.2462 53.9646 35.8458 54.3731C36.4454 54.7816 37.1564 55.0003 37.8845 55C38.1795 55 38.4744 54.9635 38.762 54.8943C39.2246 54.7821 39.6601 54.5803 40.0434 54.3005C40.4266 54.0208 40.75 53.6687 40.9947 53.2646L50.6394 37.4432L52.162 36.4901C52.9616 35.987 53.6329 35.308 54.1234 34.5061C54.7464 33.4857 55.0492 32.3054 54.9935 31.1147L54.7111 24.9752C54.7069 24.8571 54.6732 24.7418 54.6132 24.6397C54.5531 24.5375 54.4684 24.4517 54.3667 24.3896V24.3896ZM49.1152 37.1675L47.993 39.0101L44.2664 36.7876L45.3901 34.945L49.1152 37.1675V37.1675ZM35.7167 48.0336V37.1938H40.0671V40.8979L35.7167 48.0336V48.0336ZM36.965 32.8917H38.8195L39.7854 35.7595H35.9983L36.9643 32.8917H36.965ZM37.8919 27.8714C37.6996 27.8714 37.5153 27.7959 37.3794 27.6615C37.2434 27.5271 37.1671 27.3447 37.1671 27.1546C37.1671 26.9645 37.2434 26.7822 37.3794 26.6478C37.5153 26.5134 37.6996 26.4379 37.8919 26.4379C38.0841 26.4379 38.2685 26.5134 38.4044 26.6478C38.5403 26.7822 38.6167 26.9645 38.6167 27.1546C38.6167 27.3447 38.5403 27.5271 38.4044 27.6615C38.2685 27.7959 38.0841 27.8714 37.8919 27.8714V27.8714ZM37.8919 21.8966L41.3943 26.513L38.8947 31.4567H38.6167V29.1744C39.1005 29.0053 39.5083 28.6725 39.768 28.2349C40.0277 27.7972 40.1225 27.2828 40.0358 26.7827C39.949 26.2826 39.6863 25.8289 39.294 25.5018C38.9017 25.1747 38.405 24.9953 37.8919 24.9953C37.3787 24.9953 36.8821 25.1747 36.4898 25.5018C36.0975 25.8289 35.8347 26.2826 35.748 26.7827C35.6612 27.2828 35.7561 27.7972 36.0158 28.2349C36.2754 28.6725 36.6832 29.0053 37.1671 29.1744V31.4567H36.8898L34.3902 26.513L37.8926 21.8966H37.8919ZM27.7642 32.9923L27.5504 33.1309L24.8804 34.8714L24.6349 32.8392C24.6214 32.7287 24.582 32.6229 24.5199 32.53L23.7228 31.3328L24.9328 30.5438L25.7299 31.7411C25.792 31.834 25.875 31.9113 25.9725 31.9671L27.7635 32.9923H27.7642ZM23.2501 28.0151L24.1349 29.3436L22.9242 30.1325L21.8366 28.5051L23.2501 28.0151ZM27.1205 35.1281L28.933 33.9439L34.2663 41.9443V49.7653L25.3037 36.3122L27.1205 35.1281ZM39.7552 52.5194C39.6076 52.7613 39.4133 52.972 39.1834 53.1396C38.9534 53.3073 38.6924 53.4285 38.4151 53.4963C38.1377 53.5641 37.8496 53.5773 37.5672 53.5351C37.2847 53.4928 37.0135 53.3959 36.7689 53.25C36.5243 53.1041 36.3111 52.9119 36.1416 52.6845C35.9721 52.4572 35.8496 52.199 35.781 51.9248C35.7124 51.6505 35.6991 51.3656 35.7418 51.0863C35.7845 50.807 35.8825 50.5388 36.03 50.2969L41.5049 41.3172H41.5175V41.2975L43.5172 38.017L45.3805 39.1297L47.246 40.2381L39.7545 52.5194H39.7552ZM52.8854 33.7623C52.5114 34.3735 51.9996 34.8908 51.39 35.2739L50.1018 36.0811L47.9989 34.8291L45.8959 33.5771L46.0154 32.0714C46.0806 31.2625 46.3606 30.485 46.8273 29.8175C47.2939 29.15 47.9306 28.6163 48.6728 28.2703L53.3138 26.1105L53.4059 28.1084C53.3333 28.1008 53.26 28.1043 53.1884 28.1186L51.432 28.5488C50.6308 28.7423 49.9005 29.1539 49.3238 29.7369C48.7471 30.32 48.3471 31.0512 48.1692 31.8475C48.1272 32.0331 48.1614 32.2276 48.2643 32.3882C48.3673 32.5488 48.5305 32.6624 48.7182 32.704C48.9058 32.7455 49.1025 32.7117 49.2649 32.6099C49.4273 32.5081 49.5422 32.3466 49.5842 32.1611C49.7043 31.6256 49.9736 31.1339 50.3615 30.7418C50.7494 30.3497 51.2405 30.0728 51.7793 29.9422L53.473 29.5266L53.549 31.176C53.5914 32.0843 53.3605 32.9846 52.8854 33.7631V33.7623Z" fill="#2BD0D0"/>
</svg>
