<svg width="733" height="482" viewBox="0 0 733 482" fill="none" xmlns="http://www.w3.org/2000/svg">
<g clip-path="url(#clip0_4_58)">
<path d="M690.08 92.214C669.107 69.829 652.872 43.107 627.805 24.839C588.431 -3.91496 531.764 -6.71896 485.725 11.345C439.685 29.408 403.82 65.819 380.181 107.048C367.746 128.74 357.979 152.402 339.758 170.128C324.355 185.104 304.11 194.659 284.915 205.066C253.967 221.799 224.163 242.018 204.135 269.761C184.109 297.504 175.155 333.941 187.957 365.207C196.59 386.304 213.979 403.09 231.793 418.288C252.757 436.157 275.289 452.889 301.293 463.536C333.848 476.782 369.987 479.63 405.427 480.978C468.255 483.358 531.184 481.579 593.746 475.655C644.976 470.811 697.757 462.542 740.62 435.775C800.663 398.291 831.62 329.612 838.59 262.265C841.426 235.329 840.708 207.337 829.626 182.345C803.122 122.565 731.609 136.547 690.079 92.214H690.08Z" fill="#EFF1F7"/>
<path d="M285.317 202.334C285.317 202.334 268.717 199.387 264.067 211.003C259.417 222.619 264.067 262.736 264.067 262.736L326 307L285.317 202.334Z" fill="#3F3D56"/>
<path d="M363.202 379.727L338.647 386.735C335.079 387.745 331.337 385.783 330.275 382.349C329.228 378.911 331.262 375.303 334.825 374.28L359.347 367.266C362.912 366.256 366.654 368.213 367.719 371.645C368.777 375.078 366.759 378.69 363.202 379.727V379.727Z" fill="#2BD0D0"/>
<path d="M362 406C368.075 406 373 401.075 373 395C373 388.925 368.075 384 362 384C355.925 384 351 388.925 351 395C351 401.075 355.925 406 362 406Z" fill="#25233A"/>
<path d="M360.5 403C363.538 403 366 400.538 366 397.5C366 394.462 363.538 392 360.5 392C357.463 392 355 394.462 355 397.5C355 400.538 357.463 403 360.5 403Z" fill="#3F3D56"/>
<path d="M317 395C323.075 395 328 390.075 328 384C328 377.925 323.075 373 317 373C310.925 373 306 377.925 306 384C306 390.075 310.925 395 317 395Z" fill="#25233A"/>
<path d="M321 384.5C321 385.959 320.421 387.358 319.389 388.389C318.358 389.421 316.959 390 315.5 390C314.042 390 312.643 389.421 311.611 388.389C310.58 387.358 310 385.959 310 384.5C310 383.041 310.58 381.642 311.611 380.611C312.643 379.58 314.042 379 315.5 379C316.959 379 318.358 379.58 319.389 380.611C320.421 381.642 321 383.041 321 384.5V384.5Z" fill="url(#paint0_linear_4_58)"/>
<path d="M314 410C320.075 410 325 405.075 325 399C325 392.925 320.075 388 314 388C307.925 388 303 392.925 303 399C303 405.075 307.925 410 314 410Z" fill="#25233A"/>
<path d="M323 399.5C323 400.959 322.421 402.358 321.389 403.389C320.358 404.421 318.959 405 317.5 405C316.042 405 314.643 404.421 313.611 403.389C312.58 402.358 312 400.959 312 399.5C312 398.041 312.58 396.642 313.611 395.611C314.643 394.58 316.042 394 317.5 394C318.959 394 320.358 394.58 321.389 395.611C322.421 396.642 323 398.041 323 399.5Z" fill="#3F3D56"/>
<path d="M364.085 390.874L313.298 380.828C309.724 380.111 307.414 376.698 308.13 373.192C308.862 369.692 312.34 367.428 315.915 368.126L366.702 378.153C370.276 378.87 372.586 382.283 371.87 385.79C371.147 389.297 367.666 391.571 364.085 390.874V390.874Z" fill="#2BD0D0"/>
<path d="M333 310H347V369C347 372.866 343.867 376 340.003 376C338.147 375.999 336.368 375.261 335.056 373.949C333.744 372.636 333.007 370.856 333.007 369V310H333Z" fill="#2BD0D0"/>
<path d="M338.187 386.708L313.65 393.733C310.082 394.747 306.336 392.784 305.275 389.345C304.228 385.905 306.262 382.295 309.823 381.271L334.36 374.266C337.924 373.256 341.664 375.214 342.728 378.647C343.767 382.082 341.738 385.681 338.187 386.707V386.708Z" fill="#2BD0D0"/>
<path d="M343 386.26L339.875 386.811C338.926 386.976 337.962 387.033 337 386.983L338.305 386.755C339.17 386.611 340.012 386.357 340.812 386L343 386.26Z" fill="url(#paint1_linear_4_58)"/>
<path d="M368 372.738C368.003 374.282 367.489 375.782 366.54 377L346 372.65C346.52 371.907 346.893 371.071 347.098 370.188L359.752 366.265C360.567 366.019 361.424 365.944 362.269 366.043C363.114 366.143 363.93 366.416 364.665 366.844C366.165 367.711 367.274 369.168 367.748 370.892C367.912 371.492 367.997 372.114 368 372.738V372.738Z" fill="url(#paint2_linear_4_58)"/>
<path opacity="0.31" d="M332.22 371.103C332.074 370.589 332 370.057 332 369.523V311H337.943V374.07C337.884 374.38 337.903 374.697 338 375C337.084 374.682 336.124 374.51 335.155 374.489C334.465 374.449 333.77 374.449 333.079 374.489L333.504 374.389C333.766 374.349 332.564 372.298 332.221 371.103H332.22Z" fill="url(#paint3_linear_4_58)"/>
<path opacity="0.31" d="M369.289 389.8C368.319 390.323 367.228 390.597 366.119 390.596C365.673 390.595 365.228 390.551 364.789 390.466L342.382 386.06L340.515 385.697C339.875 386.176 339.152 386.534 338.382 386.752L337.272 387.069L314.247 393.735C310.733 394.742 307.045 392.792 306 389.373C307.997 391.178 311.029 391.346 313.223 389.774C316.034 387.878 327.225 385.031 333.564 383.517C336.56 382.819 338.852 380.467 339.412 377.517C339.428 377.344 339.454 377.171 339.492 377C340.548 378.113 342.489 379.362 345.997 380.423C354.637 383.012 368.664 384.727 368.664 384.727C368.664 384.727 371.196 387.147 369.289 389.8V389.8Z" fill="url(#paint4_linear_4_58)"/>
<path d="M371 388C370.464 388.786 369.786 389.464 369 390C369.675 389.341 370.342 388.675 371 388V388Z" fill="url(#paint5_linear_4_58)"/>
<path d="M333.3 370.559C333.58 371.735 334.166 372.815 335 373.689C334.79 373.728 334.575 373.781 334.359 373.84L313.088 380C309.817 379.187 307.662 376.135 308.044 372.854C308.425 369.574 311.225 367.073 314.6 367C315.053 367.001 315.505 367.045 315.95 367.132L333.3 370.559V370.559Z" fill="url(#paint6_linear_4_58)"/>
<path d="M366 89.407C366 89.407 365.724 68.602 348.925 70.397C332.125 72.19 333.414 65.302 326.238 66.058C319.063 66.815 310.728 73.844 313.121 82.526C315.516 91.208 306.789 93.149 301.057 99.736C295.324 106.323 302.406 111.712 312.063 118.152C321.72 124.592 311.463 122.925 317.188 133.107C322.914 143.288 342.295 130.282 342.295 130.282L366 89.407Z" fill="#503164"/>
<path d="M229.664 434.601L241.394 435V341.255C241.394 341.255 241.984 317.014 264.846 314.582C287.707 312.151 495.042 282.116 495.042 282.116C495.042 282.116 503.26 281.246 507.993 297.017C512.726 312.788 517.333 374.804 517.333 374.804L580.973 383.381C580.973 383.381 582.653 273.831 559.671 267.786C536.69 261.741 236.149 292.546 236.149 292.546C236.149 292.546 213.859 408.898 229.664 434.601V434.601Z" fill="#2BD0D0"/>
<path opacity="0.197" d="M229.664 434.601L241.394 435V341.255C241.394 341.255 241.984 317.014 264.846 314.582C287.707 312.151 495.042 282.116 495.042 282.116C495.042 282.116 503.26 281.246 507.993 297.017C512.726 312.788 517.333 374.804 517.333 374.804L580.973 383.381C580.973 383.381 582.653 273.831 559.671 267.786C536.69 261.741 236.149 292.546 236.149 292.546C236.149 292.546 213.859 408.898 229.664 434.601V434.601Z" fill="url(#paint7_linear_4_58)"/>
<path d="M169 303.784C169 303.784 174.744 272.028 215.144 263.705L500.327 231.062C500.327 231.062 528.323 229.902 541.131 237.649C553.939 245.395 572.219 251.817 579.714 286.872C587.209 321.928 589 381.814 589 381.814L581.91 382.914C581.91 382.914 571.562 274.474 560.598 267.608C549.635 260.743 253.196 302.863 253.196 302.863C253.196 302.863 232.635 306.951 230.844 337.395C229.054 367.838 230.844 434 230.844 434L169 409.057V303.784Z" fill="#2BD0D0"/>
<path opacity="0.19" d="M462.425 243.844C447.663 241.944 432.781 240.568 417.906 241.124C406.726 241.557 395.62 243.09 384.534 244.617L286.759 258.12C285.099 258.35 283.209 258.723 282.379 260.164C280.787 262.916 284.529 265.628 287.561 266.676C320.071 277.932 354.804 289.332 388.269 281.306C403.569 277.637 417.78 270.018 433.299 267.371C448.817 264.724 464.747 267.161 480.232 264.665C494.789 262.32 508.649 255.656 523.404 255.591C527.929 255.591 532.587 256.168 536.879 254.752C541.172 253.337 544.967 249.013 543.779 244.702C529.926 244.224 514.375 241.695 500.787 244.44C487.338 247.152 475.893 243.844 462.425 243.844V243.844Z" fill="url(#paint8_linear_4_58)"/>
<path d="M374 259.38L374.57 261.494C374.57 261.494 391.451 271.667 391.345 271.995C391.239 272.323 461.369 255.755 461.369 255.755L463 251L374 259.38Z" fill="#2BD0D0"/>
<path d="M374 259.38L374.57 261.494C374.57 261.494 391.451 271.667 391.345 271.995C391.239 272.323 461.369 255.755 461.369 255.755L463 251L374 259.38Z" fill="url(#paint9_linear_4_58)"/>
<path d="M375 259.364L437.107 246L463 251.054L392.442 268L375 259.364Z" fill="#2BD0D0"/>
<path d="M375 259.364L437.107 246L463 251.054L392.442 268L375 259.364Z" fill="url(#paint10_linear_4_58)"/>
<path d="M354.832 270.484L369.289 270.996C369.289 270.996 372.961 271.224 373.909 268.279C374.859 265.334 368.019 259.119 367.287 259.002C366.554 258.884 347.527 264.222 350.27 269.558L354.832 270.484Z" fill="#2BD0D0"/>
<path d="M354.832 270.484L369.289 270.996C369.289 270.996 372.961 271.224 373.909 268.279C374.859 265.334 368.019 259.119 367.287 259.002C366.554 258.884 347.527 264.222 350.27 269.558L354.832 270.484Z" fill="url(#paint11_linear_4_58)"/>
<path d="M186 416.056L178.942 437.733C158.469 445.084 141.062 437.733 141.062 437.733L136 415C136 415 161.535 423.56 186 416.056Z" fill="#2BD0D0"/>
<path d="M186 416.056L178.942 437.733C158.469 445.084 141.062 437.733 141.062 437.733L136 415C136 415 161.535 423.56 186 416.056Z" fill="url(#paint12_linear_4_58)"/>
<path d="M194 396L191.716 412.943L185.93 415.951C161.282 423.371 135.515 414.913 135.515 414.913L131.072 411.63L129 396H194Z" fill="#2BD0D0"/>
<path d="M194 396L191.716 412.943L185.93 415.951C161.282 423.371 135.515 414.913 135.515 414.913L131.072 411.63L129 396H194Z" fill="url(#paint13_linear_4_58)"/>
<path d="M161.5 401C179.45 401 194 398.314 194 395C194 391.686 179.45 389 161.5 389C143.551 389 129 391.686 129 395C129 398.314 143.551 401 161.5 401Z" fill="#2BD0D0"/>
<path d="M161.5 401C179.45 401 194 398.314 194 395C194 391.686 179.45 389 161.5 389C143.551 389 129 391.686 129 395C129 398.314 143.551 401 161.5 401Z" fill="url(#paint14_linear_4_58)"/>
<path d="M146.641 265.03C143.459 263.515 140.038 262.372 137.285 260.16C131.738 255.66 130.332 247.912 128.595 240.962C126.859 234.011 123.498 226.369 116.651 224.375C114.089 223.638 111.084 223.93 109.136 225.765C107.083 227.698 106.666 230.875 107.228 233.679C107.789 236.483 109.156 238.995 110.213 241.653C112.681 247.831 113.431 254.561 112.385 261.13C111.52 266.519 109.453 271.981 110.78 277.264C113.032 286.228 124.25 291.484 124.56 300.721C124.772 306.954 119.675 312.722 120.83 318.856C121.682 323.394 125.835 326.936 126.06 331.548C126.31 336.778 121.398 341.203 121.636 346.433C121.873 351.663 127.063 355.158 130.451 359.272C133.294 362.733 134.981 366.997 135.278 371.465C135.456 374.256 135.099 377.147 136.004 379.792C136.664 381.725 137.984 383.367 139.008 385.108C140.138 386.988 140.989 389.022 142.349 390.763C144.051 392.929 146.367 394.532 148.994 395.362C151.621 396.191 154.437 396.21 157.074 395.414C158.124 388.464 157.206 381.374 157.497 374.349C158.071 360.74 163.188 347.025 159.913 333.814C158.712 328.97 156.401 324.371 155.991 319.401C155.628 314.961 156.803 310.563 157.622 306.184C159.312 297.14 159.286 287.79 158.592 278.646C158.045 271.39 152.974 268.047 146.642 265.03H146.641Z" fill="#2BD0D0"/>
<path d="M166.752 300.767C166.699 306.829 168.082 313.097 166.14 318.852C164.67 323.214 161.438 326.786 159.769 331.075C155.919 340.974 161.099 352.075 160.042 362.645C159.602 366.999 158.106 371.182 157.162 375.458C155.99 380.871 155.702 386.438 156.311 391.943C156.249 392.946 156.552 393.937 157.163 394.735C157.774 395.533 158.652 396.083 159.636 396.285C162.895 397.526 166.27 398.436 169.711 399C168.548 392.591 169.774 385.977 173.156 380.41C178.43 371.78 188.678 365.964 190.586 356.051C191.876 349.339 188.871 342.527 189.084 335.696C189.238 331.149 190.804 326.763 193.566 323.148C196.046 319.921 199.405 317.425 201.713 314.078C207.259 306.012 205.53 295.23 203.881 285.584C202.231 275.937 201.274 264.836 207.791 257.527C209.853 255.217 212.539 253.483 214.408 251.014C218.571 245.51 217.52 237.031 212.678 232.112C207.838 227.192 200.043 225.832 193.46 227.996C190.684 228.812 188.233 230.477 186.45 232.756C183.125 237.47 184.455 243.91 185.865 249.513C187.095 254.38 188.086 259.996 186.404 264.903C185.147 268.554 181.961 270.533 179.254 273.075C175.419 276.616 172.336 280.893 170.188 285.65C168.04 290.408 166.872 295.549 166.752 300.767V300.767Z" fill="#2BD0D0"/>
<path d="M160.062 354.522C159.124 361.115 157.77 367.761 157.492 374.373V375.038C157.478 375.202 157.441 375.363 157.381 375.517C156.21 380.935 155.917 386.507 156.515 392.018C156.551 392.911 156.776 393.786 157.175 394.584C157.143 394.863 157.103 395.135 157.064 395.414C154.426 396.21 151.609 396.192 148.981 395.362C146.354 394.532 144.037 392.929 142.334 390.762C141.014 389.021 140.121 386.987 138.992 385.107C137.935 383.359 136.647 381.717 135.987 379.79C135.082 377.131 135.438 374.254 135.26 371.463C134.964 366.993 133.275 362.729 130.432 359.267C127.043 355.18 121.845 351.751 121.614 346.434C121.383 341.117 126.29 336.778 126.039 331.547C125.815 326.935 121.66 323.393 120.809 318.854C119.652 312.719 124.771 306.951 124.54 300.717C124.23 291.479 113.008 286.222 110.755 277.257C109.435 271.973 111.495 266.51 112.36 261.121C113.411 254.56 112.67 247.836 110.214 241.661C109.157 239.003 107.79 236.498 107.228 233.686C106.667 230.876 107.083 227.705 109.137 225.764C111.119 223.93 114.091 223.638 116.654 224.375C123.51 226.369 126.858 234.039 128.602 240.99C130.346 247.942 131.746 255.684 137.294 260.19C140.036 262.417 143.47 263.546 146.654 265.062C152.994 268.079 158.067 271.422 158.609 278.612C159.269 287.757 159.329 297.108 157.639 306.153C156.819 310.533 155.657 314.933 156.007 319.372C156.357 323.812 158.279 328.012 159.534 332.318C159.673 332.803 159.811 333.295 159.93 333.787C161.595 340.626 161.06 347.544 160.062 354.522V354.522Z" fill="#30C59B"/>
<path d="M156.718 394C156.416 393.204 156.246 392.363 156.216 391.512C155.786 386.152 156 380.732 156.853 375.465C156.876 375.31 156.905 375.155 156.933 375C156.762 381.346 157.307 387.744 156.718 394V394Z" fill="url(#paint15_linear_4_58)"/>
<path d="M214.393 251.014C212.522 253.484 209.831 255.216 207.766 257.527C201.239 264.83 202.198 275.937 203.85 285.584C205.501 295.23 207.233 306.012 201.678 314.079C199.368 317.399 196.004 319.921 193.519 323.148C190.753 326.762 189.184 331.148 189.029 335.696C188.817 342.527 191.827 349.339 190.535 356.051C188.624 365.964 178.36 371.793 173.078 380.411C169.704 385.981 168.486 392.593 169.654 399C166.217 398.436 162.845 397.526 159.59 396.285C158.701 396.022 157.894 395.534 157.246 394.87C157.154 394.762 157.072 394.647 156.999 394.525C156.587 393.735 156.348 392.865 156.3 391.975C155.701 386.469 156 380.902 157.186 375.491C157.219 375.331 157.259 375.172 157.299 375.013C158.245 370.903 159.644 366.873 160.07 362.677C160.297 359.957 160.243 357.22 159.91 354.511C160.916 347.54 161.455 340.629 159.757 333.843C159.637 333.353 159.497 332.861 159.357 332.376C159.484 331.951 159.63 331.526 159.797 331.108C161.469 326.819 164.706 323.248 166.177 318.885C168.116 313.129 166.737 306.862 166.79 300.8C166.877 290.33 171.613 280.22 179.219 273.075C181.929 270.533 185.12 268.555 186.379 264.903C188.064 259.996 187.045 254.38 185.839 249.513C184.421 243.91 183.075 237.47 186.426 232.756C188.091 230.419 190.716 228.899 193.446 227.996C200.013 225.831 207.853 227.192 212.695 232.112C217.537 237.032 218.563 245.542 214.393 251.014V251.014Z" fill="#30C59B"/>
<path d="M332.573 146.146C332.573 146.146 304.756 150.446 291.889 181.123C279.022 211.8 285.713 249.806 285.938 253.15C286.163 256.494 325.366 271 336.573 271C347.781 271 350.115 259.771 350.115 259.771L330.312 251.338L390.482 244.389H401.286L395.335 254.421C395.335 254.421 407.078 255.651 414.927 255.932C422.775 256.213 428.105 240.692 428.984 232.973C429.864 225.256 394.317 157.515 389.007 153.503C383.697 149.49 369.29 139.686 332.573 146.146V146.146Z" fill="#2BD0D0"/>
<path d="M365.392 88.776C365.392 88.776 370.424 91.606 369.972 100.761C369.519 109.916 366.682 123.693 363.819 127.261C360.955 130.831 350.939 132.229 350.939 132.229C350.939 132.229 356.403 145.206 360.469 148.555C364.535 151.904 356.383 164.242 348.454 160.194C340.526 156.145 331.334 145.978 331.334 145.978C331.334 145.978 337.946 133.733 335.71 127.288C333.475 120.843 324.938 98.224 331.334 92.046C337.73 85.866 351.52 77.011 365.392 88.776V88.776Z" fill="url(#paint16_linear_4_58)"/>
<path opacity="0.25" d="M321.334 190L317 244.055L330.238 251L341 249.122L327.572 232.618L321.334 190ZM391 187C391 187 408.909 229.077 400.97 244L394.854 242.84L391 187Z" fill="white"/>
<path d="M342.522 258.045C342.522 258.045 335.756 263.82 338.776 268.312C341.796 272.803 345.401 272.675 348.407 270.667C351.413 268.658 357.318 263.891 364.353 266.079C371.388 268.267 373.097 269.659 373.097 269.659C373.097 269.659 376.802 267.343 375.841 265.02C374.879 262.697 367.521 255.17 365.389 254.195C363.257 253.22 354.406 256.216 354.406 256.216C354.406 256.216 347.903 254.458 342.522 258.046V258.045Z" fill="url(#paint17_linear_4_58)"/>
<path d="M402.191 245.598C402.191 245.598 395.806 246.357 394.193 250.555C392.58 254.753 392 255.265 392 255.265C392 255.265 395.606 255.955 397.106 254.001C398.606 252.047 400.165 252.868 400.165 252.868L399.718 255.375C399.718 255.375 409.516 256.852 413.942 255.265C418.367 253.676 420.267 251.812 420.267 251.812L422 247.572C422 247.572 417.82 244.542 414.668 244.072C411.516 243.602 402.191 245.598 402.191 245.598V245.598Z" fill="url(#paint18_linear_4_58)"/>
<path d="M435.893 290C435.893 290 457.827 306.687 455.877 329.259C453.928 351.831 451.064 385.346 451.064 385.346C451.064 385.346 442.218 389.068 436.357 385.346C430.495 381.624 426.946 330.696 424.042 325.833C421.138 320.969 403.667 299.043 385 297.154L435.893 290Z" fill="#25233A"/>
<path d="M326 306.058C326 306.058 336.444 315.953 355.062 319.06C373.681 322.167 382.359 324.76 388.049 340.665C393.739 356.57 399.197 390.802 400.984 394.628C402.77 398.454 410.366 396.502 410.366 396.502C410.366 396.502 414.662 391.607 414.662 364.388C414.662 326.442 417.317 318.664 407.749 309.132C398.181 299.599 389.477 297 389.477 297L326 306.058Z" fill="#3F3D56"/>
<path d="M401 396L402.82 410.197H406.228C406.228 410.197 428.176 411.384 428.864 410.872C429.552 410.359 427.807 399.629 419.492 399.932C411.176 400.236 410.631 397.909 410.631 397.909L401 396ZM438 386.156L441.518 400L479.955 394.788C479.955 394.788 481.308 385.695 469.132 386.597C465.918 386.831 463.524 389.062 459.661 389.082C455.798 389.102 452.098 387.539 450.15 385L438 386.156Z" fill="#25233A"/>
<path d="M568.804 212.337L426.561 219.991C423.121 220.172 420.185 217.521 420 214.065V112.473C420.003 108.372 423.267 105.025 427.348 104.938L569.009 102.001C569.91 101.983 570.805 102.143 571.644 102.472C572.482 102.801 573.247 103.292 573.895 103.918C575.208 105.185 575.964 106.921 576 108.745V204.716C575.995 208.772 572.836 212.118 568.804 212.337V212.337Z" fill="#2BD0D0"/>
<path d="M576.804 212.337L434.554 219.992C431.114 220.169 428.182 217.514 428 214.058V112.473C427.996 108.371 431.26 105.021 435.342 104.938L577.022 102.001C580.799 101.931 583.92 104.944 584 108.739V204.716C583.995 208.773 580.836 212.119 576.804 212.337V212.337Z" fill="#2BD0D0"/>
<path d="M576.804 212.337L434.554 219.992C431.114 220.169 428.182 217.514 428 214.058V112.473C427.996 108.371 431.26 105.021 435.342 104.938L577.022 102.001C580.799 101.931 583.92 104.944 584 108.739V204.716C583.995 208.773 580.836 212.119 576.804 212.337V212.337Z" fill="url(#paint19_linear_4_58)"/>
<path d="M534.773 251.138L498.478 255C498.478 255 487.425 252.77 488.023 251.138C488.622 249.505 500.179 247.933 500.179 247.933V182.129C500.079 181.983 498.558 180.045 494.39 178.81C493.583 178.571 492.762 178.38 491.931 178.24C491.217 178.136 490.523 177.925 489.871 177.616C487.392 176.336 490.131 174.106 493.978 174.006C494.581 173.985 495.184 174.02 495.78 174.112H523.693C523.693 174.112 534.261 177.085 534.773 191.923C535.284 206.762 534.773 251.138 534.773 251.138V251.138Z" fill="#3A3054"/>
<path d="M505 251.277L498.322 255C498.322 255 487.434 252.77 488.023 251.137C488.613 249.505 500.018 247.932 500.018 247.932V182.123C499.88 181.971 498.211 180.225 494.315 178.805C492.866 178.288 491.377 177.888 489.863 177.61C487.421 176.33 490.118 174.1 493.909 174C497.137 174.445 503.494 178.028 503.907 180.073C504.319 182.117 505 251.277 505 251.277V251.277Z" fill="#51466B"/>
<path d="M370 389C369.119 390.001 368.71 390.37 369.23 389.547C369.5 389.388 369.757 389.205 370 389Z" fill="url(#paint20_linear_4_58)"/>
</g>
<defs>
<linearGradient id="paint0_linear_4_58" x1="310" y1="384.5" x2="321" y2="384.5" gradientUnits="userSpaceOnUse">
<stop stop-color="#183866"/>
<stop offset="1" stop-color="#1A7FC1"/>
</linearGradient>
<linearGradient id="paint1_linear_4_58" x1="336.992" y1="386.501" x2="343" y2="386.501" gradientUnits="userSpaceOnUse">
<stop/>
<stop offset="0.99" stop-opacity="0"/>
</linearGradient>
<linearGradient id="paint2_linear_4_58" x1="384.736" y1="303.741" x2="410.309" y2="315.701" gradientUnits="userSpaceOnUse">
<stop/>
<stop offset="0.99" stop-opacity="0"/>
</linearGradient>
<linearGradient id="paint3_linear_4_58" x1="335.536" y1="145.881" x2="332.025" y2="144.925" gradientUnits="userSpaceOnUse">
<stop/>
<stop offset="0.99" stop-opacity="0"/>
</linearGradient>
<linearGradient id="paint4_linear_4_58" x1="405.904" y1="366.244" x2="319.678" y2="338.077" gradientUnits="userSpaceOnUse">
<stop/>
<stop offset="0.99" stop-opacity="0"/>
</linearGradient>
<linearGradient id="paint5_linear_4_58" x1="416.221" y1="56.3019" x2="412.253" y2="55.0491" gradientUnits="userSpaceOnUse">
<stop/>
<stop offset="0.99" stop-opacity="0"/>
</linearGradient>
<linearGradient id="paint6_linear_4_58" x1="373.176" y1="311.613" x2="345.431" y2="318.99" gradientUnits="userSpaceOnUse">
<stop/>
<stop offset="0.99" stop-opacity="0"/>
</linearGradient>
<linearGradient id="paint7_linear_4_58" x1="605.455" y1="304.803" x2="97.0364" y2="280.329" gradientUnits="userSpaceOnUse">
<stop/>
<stop offset="1" stop-opacity="0"/>
</linearGradient>
<linearGradient id="paint8_linear_4_58" x1="319.123" y1="223.225" x2="581.12" y2="223.225" gradientUnits="userSpaceOnUse">
<stop stop-color="#183866"/>
<stop offset="1" stop-color="#1A7FC1"/>
</linearGradient>
<linearGradient id="paint9_linear_4_58" x1="409.944" y1="259.298" x2="413.103" y2="271.573" gradientUnits="userSpaceOnUse">
<stop/>
<stop offset="0.99" stop-opacity="0"/>
</linearGradient>
<linearGradient id="paint10_linear_4_58" x1="363.973" y1="255.883" x2="449.308" y2="283.188" gradientUnits="userSpaceOnUse">
<stop/>
<stop offset="0.99" stop-opacity="0"/>
</linearGradient>
<linearGradient id="paint11_linear_4_58" x1="362.888" y1="264.073" x2="362.259" y2="268.902" gradientUnits="userSpaceOnUse">
<stop/>
<stop offset="0.99" stop-opacity="0"/>
</linearGradient>
<linearGradient id="paint12_linear_4_58" x1="231.463" y1="328.356" x2="187.125" y2="326.644" gradientUnits="userSpaceOnUse">
<stop/>
<stop offset="0.99" stop-opacity="0"/>
</linearGradient>
<linearGradient id="paint13_linear_4_58" x1="238.576" y1="366.963" x2="201.533" y2="365.696" gradientUnits="userSpaceOnUse">
<stop/>
<stop offset="0.99" stop-opacity="0"/>
</linearGradient>
<linearGradient id="paint14_linear_4_58" x1="166.043" y1="394.234" x2="164.691" y2="400.916" gradientUnits="userSpaceOnUse">
<stop/>
<stop offset="0.99" stop-opacity="0"/>
</linearGradient>
<linearGradient id="paint15_linear_4_58" x1="156.581" y1="95.0216" x2="153.473" y2="114.158" gradientUnits="userSpaceOnUse">
<stop/>
<stop offset="0.99" stop-opacity="0"/>
</linearGradient>
<linearGradient id="paint16_linear_4_58" x1="328.984" y1="121.995" x2="369.999" y2="121.995" gradientUnits="userSpaceOnUse">
<stop stop-color="#ECC4D7"/>
<stop offset="0.42" stop-color="#EFD4D1"/>
<stop offset="1" stop-color="#F2EAC9"/>
</linearGradient>
<linearGradient id="paint17_linear_4_58" x1="375.633" y1="224.608" x2="413.632" y2="224.608" gradientUnits="userSpaceOnUse">
<stop stop-color="#ECC4D7"/>
<stop offset="0.42" stop-color="#EFD4D1"/>
<stop offset="1" stop-color="#F2EAC9"/>
</linearGradient>
<linearGradient id="paint18_linear_4_58" x1="429.292" y1="233.853" x2="459.292" y2="233.853" gradientUnits="userSpaceOnUse">
<stop stop-color="#ECC4D7"/>
<stop offset="0.42" stop-color="#EFD4D1"/>
<stop offset="1" stop-color="#F2EAC9"/>
</linearGradient>
<linearGradient id="paint19_linear_4_58" x1="629.069" y1="220.425" x2="486.99" y2="314.915" gradientUnits="userSpaceOnUse">
<stop stop-color="#362958" stop-opacity="0.501"/>
<stop offset="1" stop-color="#34313D" stop-opacity="0"/>
</linearGradient>
<linearGradient id="paint20_linear_4_58" x1="408.891" y1="46.8936" x2="407.725" y2="46.4625" gradientUnits="userSpaceOnUse">
<stop/>
<stop offset="0.99" stop-opacity="0"/>
</linearGradient>
<clipPath id="clip0_4_58">
<rect width="733" height="482" fill="white"/>
</clipPath>
</defs>
</svg>
