<svg width="121" height="33" viewBox="0 0 121 33" fill="none" xmlns="http://www.w3.org/2000/svg">
<g clip-path="url(#clip0_9_2)">
<path d="M16.715 7.93205C16.647 7.84205 16.409 7.67205 16.001 7.42205C15.593 7.17205 15.083 6.91205 14.471 6.64005C13.859 6.36805 13.19 6.13005 12.465 5.92605C11.7572 5.72451 11.0249 5.62154 10.289 5.62005C8.294 5.62005 7.297 6.28905 7.297 7.62605C7.297 8.03405 7.404 8.37405 7.62 8.64605C7.835 8.91805 8.152 9.16205 8.572 9.37705C8.991 9.59205 9.518 9.79105 10.152 9.97205L11.558 10.3651L12.363 10.5841C13.519 10.9011 14.561 11.2471 15.491 11.6211C16.42 11.9951 17.208 12.4601 17.854 13.0151C18.4985 13.5683 19.0098 14.2598 19.35 15.0381C19.7 15.8311 19.877 16.7831 19.877 17.8941C19.877 19.2541 19.622 20.4041 19.112 21.3451C18.602 22.2851 17.927 23.0451 17.089 23.6231C16.249 24.2011 15.287 24.6201 14.199 24.8811C13.111 25.1411 11.989 25.2721 10.833 25.2721C8.99121 25.2616 7.16001 24.9926 5.393 24.4731C4.509 24.2131 3.653 23.9011 2.826 23.5381C2.02395 23.1895 1.25542 22.7684 0.529999 22.2801L2.978 17.4181C3.068 17.5311 3.363 17.7471 3.862 18.0641C4.36 18.3811 4.978 18.6991 5.715 19.0161C6.451 19.3331 7.273 19.6161 8.18 19.8661C9.086 20.1161 10.004 20.2401 10.934 20.2401C12.906 20.2401 13.892 19.6401 13.892 18.4381C13.892 17.9851 13.744 17.6111 13.45 17.3161C13.155 17.0211 12.747 16.7551 12.226 16.5171C11.7372 16.2982 11.2349 16.1112 10.722 15.9571L9.02 15.4621L8.044 15.1741C6.933 14.8341 5.97 14.4661 5.154 14.0691C4.338 13.6721 3.664 13.2131 3.131 12.6921C2.60788 12.1852 2.20176 11.5702 1.941 10.8901C1.68 10.2101 1.55 9.41705 1.55 8.51005C1.55 7.24005 1.788 6.11905 2.264 5.14405C2.72289 4.19113 3.38429 3.34988 4.202 2.67905C5.04251 1.99726 6.00636 1.48359 7.041 1.16605C8.117 0.826054 9.256 0.656054 10.458 0.656054C11.296 0.656054 12.124 0.736054 12.94 0.894054C13.756 1.05305 14.538 1.25705 15.286 1.50605C16.034 1.75605 16.731 2.03905 17.376 2.35605C18.023 2.67305 18.618 2.99105 19.162 3.30805L16.714 7.93205H16.715ZM40.139 25.0001H34.699V14.9701C34.699 13.8141 34.472 12.9641 34.019 12.4201C33.565 11.8761 32.942 11.6041 32.149 11.6041C31.831 11.6041 31.486 11.6781 31.112 11.8251C30.7186 11.9838 30.3517 12.2017 30.024 12.4711C29.6617 12.7653 29.336 13.1021 29.054 13.4741C28.757 13.8638 28.5271 14.3005 28.374 14.7661V25.0001H22.934V0.180054H28.374V10.1421C29.0047 9.10204 29.9034 8.25068 30.976 7.67705C32.052 7.09905 33.236 6.81005 34.529 6.81005C35.73 6.81005 36.699 7.02005 37.436 7.43905C38.172 7.85905 38.739 8.39105 39.136 9.03705C39.532 9.68305 39.799 10.4081 39.935 11.2131C40.071 12.0181 40.139 12.8051 40.139 13.5761V25.0001V25.0001ZM52.479 25.3401C50.96 25.3401 49.606 25.0901 48.416 24.5921C47.226 24.0931 46.223 23.4191 45.406 22.5691C44.5916 21.721 43.9611 20.714 43.554 19.6111C43.1337 18.4856 42.9203 17.2934 42.924 16.0921C42.924 14.8681 43.134 13.6951 43.554 12.5731C43.9614 11.47 44.5923 10.463 45.407 9.61505C46.223 8.76505 47.226 8.08505 48.416 7.57505C49.606 7.06505 50.96 6.81005 52.479 6.81005C53.998 6.81005 55.346 7.06505 56.525 7.57505C57.704 8.08505 58.701 8.76505 59.517 9.61505C60.3331 10.4651 60.9691 11.4712 61.387 12.5731C61.8179 13.6961 62.0369 14.8892 62.033 16.0921C62.0367 17.2934 61.8233 18.4856 61.403 19.6111C60.9959 20.714 60.3654 21.721 59.551 22.5691C58.735 23.4191 57.731 24.0931 56.541 24.5921C55.351 25.0911 53.998 25.3401 52.479 25.3401V25.3401ZM48.5 16.0921C48.5 17.4971 48.874 18.6251 49.622 19.4751C50.37 20.3251 51.322 20.7501 52.478 20.7501C53.0183 20.7559 53.5529 20.6396 54.042 20.4101C54.518 20.1831 54.932 19.8661 55.282 19.4581C55.6499 19.0215 55.9328 18.5198 56.116 17.9791C56.3248 17.3721 56.4283 16.7339 56.422 16.0921C56.422 14.6871 56.048 13.5591 55.3 12.7091C54.552 11.8591 53.611 11.4341 52.478 11.4341C51.9391 11.4297 51.4058 11.5431 50.9152 11.7662C50.4247 11.9894 49.9888 12.317 49.638 12.7261C49.2708 13.1628 48.9886 13.6644 48.806 14.2051C48.5972 14.812 48.4937 15.4502 48.5 16.0921V16.0921ZM76.276 11.8081C74.961 11.8311 73.771 12.0461 72.706 12.4541C71.641 12.8621 70.87 13.4741 70.394 14.2901V25.0001H64.954V7.15005H69.952V10.7541C70.564 9.55305 71.352 8.61205 72.315 7.93205C73.278 7.25205 74.304 6.90105 75.392 6.87805H75.936C76.049 6.87805 76.163 6.88905 76.276 6.91205V11.8081V11.8081ZM90.35 24.0481C89.5136 24.396 88.6563 24.6912 87.783 24.9321C86.82 25.2041 85.851 25.3401 84.876 25.3401C84.196 25.3401 83.556 25.2551 82.956 25.0851C82.3774 24.9268 81.8384 24.6488 81.374 24.2691C80.921 23.8951 80.564 23.4021 80.304 22.7901C80.042 22.1781 79.912 21.4411 79.912 20.5801V11.2641H77.634V7.15005H79.912V1.47205H85.352V7.15005H88.99V11.2641H85.352V18.7101C85.352 19.3001 85.499 19.7241 85.794 19.9851C86.089 20.2451 86.463 20.3761 86.916 20.3761C87.324 20.3761 87.743 20.3081 88.174 20.1721C88.604 20.0361 88.979 19.8891 89.296 19.7301L90.35 24.0481V24.0481ZM92.627 0.180054H98.067V18.6421C98.067 20.0021 98.645 20.6821 99.801 20.6821C100.073 20.6821 100.373 20.6421 100.702 20.5631C101.031 20.4831 101.332 20.3651 101.603 20.2061L102.317 24.2861C101.637 24.6031 100.855 24.8531 99.971 25.0341C99.087 25.2151 98.26 25.3061 97.489 25.3061C95.925 25.3061 94.724 24.8981 93.885 24.0821C93.046 23.2661 92.627 22.0871 92.627 20.5461V0.180054V0.180054ZM104.083 27.6861C104.537 27.8451 104.962 27.9581 105.358 28.0261C105.712 28.0901 106.07 28.1242 106.429 28.1281C107.087 28.1281 107.597 27.9011 107.959 27.4481C108.322 26.9951 108.651 26.1781 108.945 25.0001L102.145 7.15005H107.755L111.903 20.3421L115.473 7.15005H120.573L113.773 27.8901C113.324 29.3254 112.431 30.5814 111.223 31.4771C109.999 32.3951 108.549 32.8541 106.871 32.8541C106.409 32.8534 105.949 32.8135 105.494 32.7351C105.012 32.6509 104.54 32.5199 104.084 32.3441V27.6861H104.083Z" fill="white"/>
</g>
<defs>
<clipPath id="clip0_9_2">
<rect width="121" height="33" fill="white"/>
</clipPath>
</defs>
</svg>
